<svg width="399.99999999999994" height="399.99999999999994" xmlns="http://www.w3.org/2000/svg" xmlns:svg="http://www.w3.org/2000/svg" preserveAspectRatio="xMidYMid meet">
 <metadata>Created by potrace 1.11, written by Peter Selinger 2001-2013</metadata>
 <g>
  <title>Layer 1</title>
  <g id="svg_1" fill="#000000" transform="translate(0,400) scale(0.10000000149011612,-0.10000000149011612) ">
   <path id="svg_2" d="m1947,3600c-31,-6 -59,-27 -139,-106c-112,-112 -212,-227 -282,-326c-41,-58 -52,-68 -84,-73c-78,-12 -158,-37 -194,-61c-21,-13 -41,-24 -46,-24c-4,0 -23,13 -42,29c-54,44 -93,60 -193,82c-51,10 -125,29 -165,41c-66,19 -75,20 -89,6c-14,-15 -13,-22 7,-85c37,-110 56,-149 96,-193c53,-59 103,-81 194,-87c75,-5 77,-6 72,-30c-2,-13 -16,-30 -31,-38c-42,-21 -88,-76 -115,-135c-47,-100 -32,-214 38,-297c27,-31 27,-33 10,-65c-9,-18 -18,-35 -20,-36c-7,-10 -149,76 -222,134c-112,87 -125,79 -70,-47c48,-108 92,-182 126,-211l30,-25l-37,-37c-20,-20 -44,-36 -52,-36c-21,0 -168,153 -245,255c-81,106 -194,279 -218,333c-18,39 -47,56 -59,35c-6,-11 28,-341 47,-448c31,-177 76,-299 145,-390l39,-51l-5,-85c-8,-130 1,-149 114,-254c154,-143 333,-275 373,-275c21,0 119,46 154,73c18,13 24,11 69,-24c27,-22 53,-39 57,-39c5,0 52,15 103,34l95,34l6,-166c10,-272 25,-474 37,-488c6,-8 29,-14 50,-14l39,0l0,-43c0,-32 6,-49 23,-65c45,-42 202,-58 431,-42c165,11 246,24 257,41c3,6 4,151 1,323c-3,173 -2,325 2,340c6,25 10,26 71,26c55,0 65,-3 65,-17c2,-84 21,-443 26,-483c8,-59 24,-70 99,-70l44,0l6,-47c9,-69 16,-77 76,-86c58,-9 493,-2 547,9c67,13 67,16 67,420l0,361l72,73l72,72l83,-83c70,-71 93,-103 147,-206c79,-152 80,-154 109,-147c19,6 22,13 22,61c0,120 -51,245 -189,465l-73,118l22,107c39,198 26,534 -35,897c-65,381 -180,777 -260,897c-22,35 -30,39 -117,58c-374,84 -994,144 -1161,111zm-168,-794c200,-102 267,-380 126,-521c-51,-52 -98,-68 -178,-63c-116,7 -218,82 -277,201c-63,129 -48,263 39,347c26,25 62,51 81,58c56,18 148,9 209,-22zm-496,-90c73,-33 81,-47 89,-143c3,-48 9,-104 13,-123c15,-78 -111,-180 -222,-180c-67,0 -112,20 -157,70c-129,143 -8,390 191,390c30,0 68,-6 86,-14zm-910,-392c97,-139 239,-306 306,-359c28,-22 51,-48 51,-58c0,-65 -99,-147 -197,-163c-36,-5 -42,-3 -76,35c-95,105 -145,283 -181,641c-5,46 -4,52 7,36c6,-10 47,-69 90,-132zm552,-148c42,-11 30,-53 -24,-89c-22,-15 -27,-15 -53,1c-16,9 -40,31 -52,47c-25,32 -86,149 -86,163c0,5 43,-19 95,-53c52,-35 106,-66 120,-69zm2233,-1662c31,-31 34,-37 19,-45c-31,-18 -152,-27 -327,-24c-230,4 -251,11 -192,68c39,37 89,37 125,-1c15,-15 27,-35 27,-43c1,-7 7,-2 16,13c30,56 107,67 146,20l23,-28l36,38c47,50 79,50 127,2zm-984,-25c25,-28 26,-33 12,-41c-44,-25 -452,-34 -553,-12c-41,8 -41,17 -4,55c38,38 100,41 135,6c13,-13 25,-29 27,-36c3,-9 15,-4 36,18c43,42 102,44 141,4l27,-28l37,39c34,35 41,38 75,33c25,-4 48,-17 67,-38z"/>
  </g>
  <circle id="svg_3" r="3.401265" cy="151.390634" cx="114.687509" stroke-width="5" stroke="#000000" fill="#000000"/>
  <circle id="svg_5" r="3.401265" cy="143.749988" cx="166.250005" stroke-width="5" stroke="#000000" fill="#000000"/>
 </g>
</svg>