<?xml version="1.0" encoding="UTF-8" standalone="no"?>
<svg width="250.06" xmlns="http://www.w3.org/2000/svg" height="250.16">
 <g id="g4824" externalResourcesRequired="false" transform="matrix(1.25 0 0 -1.25 0 250.16)">
  <g id="g4826" fill="#fff" transform="scale(.24)">
   <path id="path4828" d="m833.53 780.93c0 35.32-17.301 52.937-51.988 52.937h-739.24c-28.227 0-42.301-14.726-42.301-44.117v-746.54c0-28.777 14.074-43.207 42.301-43.207h748.02c28.864 0 43.211 14.43 43.211 43.207v737.72l-0.0001-0.0001zm-47.472-695.52c0-15.277-2.489-25.406-7.512-30.383-4.981-4.9804-14.809-7.4687-29.578-7.4687h-664.37c-16.477 0-26.793 2.3203-30.949 6.9609-4.0937 4.7266-6.1796 15.024-6.1796 30.891v663.98c0 24.644 12.363 36.984 37.129 36.984h664.37c24.726 0 37.09-12.34 37.09-36.984v-663.98"/>
   <path id="path4830" d="m298.27 554c4.621 2.215 6.964 4.07 6.964 5.527 0 1.477-0.78098 3.5-2.3 6.098-1.5 2.594-7.996 6.473-19.391 11.625 5.274-15.512 10.191-23.25 14.727-23.25"/>
   <path id="path4832" d="m309.89 503.53c4.621 2.172 6.964 4.66 6.964 7.574 0 2.11-7.406 6.817-22.093 13.989 3.843-14.391 8.906-21.563 15.129-21.563"/>
   <path id="path4834" d="m257.82 552.06c4.41 0 6.649 1.515 6.649 4.578 0 2.34-0.88702 4.574-2.766 6.918-1.898 2.277-8.039 6.097-18.355 11.5 5.148-15.34 9.98-22.996 14.472-22.996"/>
   <path id="path4836" d="m285.78 608.32c5.188 2.153 7.828 4.348 7.828 6.563 0 1.433-1.121 3.25-3.378 5.402-2.235 2.191-8.586 5.82-19.008 10.93 5.23-15.297 10.062-22.895 14.558-22.895"/>
   <path id="path4838" d="m322.17 577.25c4.219 2.34 6.351 5.02 6.351 8.121 0 3.059-7.406 8.461-22.136 16.203 2.976-16.203 8.25-24.324 15.785-24.324"/>
   <path id="path4840" d="m354.87 530.7c4.41 2.871 6.606 4.981 6.606 6.414 0 1.414-0.94998 3.02-2.766 4.789-1.813 1.774-4.008 3.188-6.559 4.285-2.593 1.036-6.437 3.016-11.543 5.868 3.629-14.266 8.379-21.356 14.262-21.356"/>
   <path id="path4842" d="m211.59 615.96c5.992-16.774 11.226-25.11 15.761-25.11l6.098 5.973c0 5.57-4.41 10.758-13.144 15.547-2.891 0.78101-5.782 1.984-8.715 3.59"/>
   <path id="path4844" d="m654.41 107.68l-9.242 30.718c-6.078-2.363-13.715-3.543-22.871-3.543h-18.313c0-6.668 5.485-16.836 16.583-30.55 11.054-13.629 19.285-21.606 24.601-23.801h34.477c0 18.106-8.442 27.176-25.235 27.176"/>
   <path id="path4846" d="m654.41 107.68l-9.242 30.718c-6.078-2.363-13.715-3.543-22.871-3.543h-18.313c0-6.668 5.485-16.836 16.583-30.55 11.054-13.629 19.285-21.606 24.601-23.801h34.477c0 18.106-8.442 27.176-25.235 27.176z" stroke="#2f2e2f" stroke-miterlimit="2.613" stroke-width="15.512"/>
   <path id="path4848" d="m140.35 375.46v264.99c0 11.941 1.898 20.887 5.777 26.84 3.84 5.926 9.645 8.945 17.324 8.945 10.801 0 21.602-7.047 32.406-21.078-5.992-5.801-8.945-11.582-8.945-17.43 0-5.82 1.477-11.222 4.453-16.328l48.653 41.352c-5.086 5.105-10.235 7.66-15.34 7.66-5.824 0-10.528-1.098-14.219-3.293-12.133 19.012-28.043 28.527-47.746 28.527-12.914 0-22.766-4.117-29.582-12.324-6.879-8.207-10.254-20.527-10.254-36.941v-271.09l17.473 0.168"/>
   <path id="path4850" d="m140.35 375.46v264.99c0 11.941 1.898 20.887 5.777 26.84 3.84 5.926 9.645 8.945 17.324 8.945 10.801 0 21.602-7.047 32.406-21.078-5.992-5.801-8.945-11.582-8.945-17.43 0-5.82 1.477-11.222 4.453-16.328l48.653 41.352c-5.086 5.105-10.235 7.66-15.34 7.66-5.824 0-10.528-1.098-14.219-3.293-12.133 19.012-28.043 28.527-47.746 28.527-12.914 0-22.766-4.117-29.582-12.324-6.879-8.207-10.254-20.527-10.254-36.941v-271.09l17.473 0.168z" stroke="#2f2e2f" stroke-miterlimit="2.613" stroke-width="3.889"/>
   <path id="path4852" d="m739.94 381.71h-646.22c-9.0313 0-13.48-3.289-13.48-9.746s5.1445-9.66 15.465-9.66c0-137.14 38.016-205.75 114.12-205.75h413.9c76.039 0 114.06 68.613 114.06 205.75 10.383 0 15.57 3.203 15.57 9.66s-4.472 9.746-13.417 9.746"/>
   <path id="path4854" d="m739.94 381.71h-646.22c-9.0313 0-13.48-3.289-13.48-9.746s5.1445-9.66 15.465-9.66c0-137.14 38.016-205.75 114.12-205.75h413.9c76.039 0 114.06 68.613 114.06 205.75 10.383 0 15.57 3.203 15.57 9.66s-4.472 9.746-13.417 9.746z" stroke="#2f2e2f" stroke-miterlimit="2.613" stroke-width="15.512"/>
   <path id="path4856" d="m253.81 606.36c4.535 0 6.773 2.258 6.773 6.793 0 3.758-3.758 7.176-11.352 10.192-2.3 0.78101-6.097 2.636-11.371 5.675 5.274-15.085 10.59-22.66 15.95-22.66"/>
   <path id="path4858" d="m189.17 138.4l-9.348-30.718c-17.281 0-25.906-9.0707-25.906-27.176h35.254c5.187 2.1953 13.227 10.172 24.113 23.801 10.848 13.714 16.289 23.882 16.289 30.55h-17.976c-8.989 0-16.477 1.18-22.426 3.543"/>
   <path id="path4860" d="m189.17 138.4l-9.348-30.718c-17.281 0-25.906-9.0707-25.906-27.176h35.254c5.187 2.1953 13.227 10.172 24.113 23.801 10.848 13.714 16.289 23.882 16.289 30.55h-17.976c-8.989 0-16.477 1.18-22.426 3.543z" stroke="#2f2e2f" stroke-miterlimit="2.613" stroke-width="15.512"/>
   <path id="path4862" d="m236.74 532.84c5.824-15.652 10.973-23.461 15.34-23.461 4.41 2.238 6.602 4.832 6.602 7.809 0 2.949-7.297 8.164-21.942 15.652"/>
  </g>
 </g>
</svg>
