<?xml version="1.0" encoding="utf-8"?><svg xmlns="http://www.w3.org/2000/svg" xmlns:xlink="http://www.w3.org/1999/xlink" version="1.1" class="page" pageAlignment="none" x="0px" y="0px" width="740px" height="300px" viewBox="0 0 740 300" enable-background="new 0 0 740 300" xml:space="preserve"><defs><link xmlns="http://www.w3.org/1999/xhtml" rel="stylesheet" href="//fonts.googleapis.com/css?family=Aclonica" /></defs><style type="text/css"/><style type="text/css"/><g type="LAYER" name="workspace" id="workspace" locked="true"/><g type="LAYER" name="Layer 01" id="Layer 01"><text type="textBox" transform="matrix(1 0 0 1 78.5920188661791 59.141311384444116)" width="35" height="120" stroke-miterlimit="3" stroke="none" fill="#000000" font-family="Aclonica" font-size="22" text-align="left" text-anchor="start"><tspan x="0" y="22"><![CDATA[L]]></tspan><tspan x="0" y="46"><![CDATA[E]]></tspan><tspan x="0" y="70"><![CDATA[V]]></tspan><tspan x="0" y="94"><![CDATA[E]]></tspan><tspan x="0" y="118"><![CDATA[L]]></tspan></text><text type="textBox" transform="matrix(1 0 0 1 269.5484293597158 260.0631955362299)" width="273.6363636363636" height="24" stroke-miterlimit="3" stroke="none" fill="#000000" font-family="Aclonica" font-size="22" text-align="left" text-anchor="start"><tspan x="0" y="22"><![CDATA[M I N U T E S]]></tspan></text><path transform="matrix(1 0 0 1 121.26144455747655 20.366225839267138)" height="230.15151515151757" stroke-miterlimit="3" stroke="#000000" fill="#FFFFFF" d="M0,-8.043343768804334e-12 L0,230.15151515150953 "/><path transform="matrix(1 0 0 1 120.35440671821681 251.01127673818038)" width="547.272727272727" height="0.8138351983723169" stroke-width="0.6194071076012552" stroke-miterlimit="3" stroke="#000000" fill="#FFFFFF" d="M0,5.684341886080802e-14 L547.272727272727,-0.81383519837226 "/><path transform="matrix(1 0 0 1 62.863541986353496 5.766696598137571)" width="670.3030303030303" height="1.0606060606060623" stroke-miterlimit="3" stroke="#000000" fill="#FFFFFF" d="M0,0 L670.3030303030303,1.0606060606060623 "/></g></svg>